<svg xmlns="http://www.w3.org/2000/svg" viewBox="0 0 96 96" role="img" aria-label="Make Money">
  <defs>
    <linearGradient id="badgeBg" x1="12" y1="10" x2="86" y2="92" gradientUnits="userSpaceOnUse">
      <stop offset="0" stop-color="#151923"/>
      <stop offset="1" stop-color="#050608"/>
    </linearGradient>
    <filter id="softGlow" x="-30%" y="-30%" width="160%" height="160%">
      <feGaussianBlur stdDeviation="1.5" result="blur"/>
      <feMerge>
        <feMergeNode in="blur"/>
        <feMergeNode in="SourceGraphic"/>
      </feMerge>
    </filter>
  </defs>
  <rect width="96" height="96" rx="22" fill="url(#badgeBg)"/>
  <path d="M12 38 C19 30 28 24 39 22 C56 19 71 23 84 33" fill="none" stroke="#4324e8" stroke-width="6.8" stroke-linecap="round" opacity=".95"/>
  <path d="M18 73 C31 81 51 82 71 73" fill="none" stroke="#f8fafc" stroke-width="2.3" stroke-linecap="round" opacity=".65"/>
  <path d="M22 70 L31 28 L48 61 L64 29 L72 69" fill="none" stroke="#050608" stroke-width="12" stroke-linecap="round" stroke-linejoin="round" opacity=".8"/>
  <path d="M22 70 L31 28 L48 61 L64 29 L72 69" fill="none" stroke="#f8fafc" stroke-width="8.5" stroke-linecap="round" stroke-linejoin="round"/>
  <path d="M61 48 L78 30" fill="none" stroke="#a3ff12" stroke-width="7.2" stroke-linecap="round" filter="url(#softGlow)"/>
  <path d="M77 30 L77 44 L88 20 L63 29 Z" fill="#a3ff12" filter="url(#softGlow)"/>
  <g fill="#4324e8" opacity=".95">
    <circle cx="13" cy="55" r="1.6"/>
    <circle cx="20" cy="28" r="1.2"/>
    <circle cx="82" cy="48" r="1.5"/>
    <circle cx="31" cy="78" r="1.1"/>
  </g>
  <g fill="#a3ff12" opacity=".9">
    <circle cx="70" cy="20" r="1.3"/>
    <circle cx="83" cy="35" r="1.2"/>
  </g>
</svg>
